<?xml version="1.0" standalone="no"?>
<!DOCTYPE svg PUBLIC "-//W3C//DTD SVG 20010904//EN"
 "http://www.w3.org/TR/2001/REC-SVG-20010904/DTD/svg10.dtd">
<svg version="1.0" xmlns="http://www.w3.org/2000/svg"
 width="1024.000000pt" height="1024.000000pt" viewBox="0 0 1024.000000 1024.000000"
 preserveAspectRatio="xMidYMid meet">

<g transform="translate(0.000000,1024.000000) scale(0.100000,-0.100000)"
fill="#000000" stroke="none">
<path d="M4795 10229 c-1100 -66 -2190 -512 -3023 -1236 -134 -117 -374 -355
-496 -493 -493 -559 -864 -1234 -1071 -1949 -483 -1676 -94 -3461 1043 -4778
219 -254 530 -544 800 -747 945 -710 2129 -1076 3300 -1018 964 47 1830 332
2625 863 280 187 494 365 758 628 388 389 639 723 898 1198 266 486 466 1085
550 1643 44 292 54 443 54 780 0 422 -27 695 -109 1076 -173 811 -537 1556
-1082 2214 -127 153 -486 511 -642 640 -1022 846 -2282 1258 -3605 1179z
m1546 -995 c128 -24 285 -75 566 -183 222 -86 273 -102 366 -115 59 -9 155
-31 212 -50 228 -77 380 -177 710 -471 83 -74 188 -164 232 -199 185 -149 409
-452 548 -741 171 -357 255 -730 255 -1132 0 -337 -54 -597 -173 -825 -64
-125 -126 -193 -246 -272 -582 -384 -1226 -422 -2001 -119 -136 54 -438 198
-594 284 -234 130 -616 362 -616 375 0 7 9 51 19 96 43 183 55 304 55 543 1
171 -4 259 -17 345 -33 211 -93 433 -168 623 -21 53 -39 100 -39 102 0 18 306
-154 450 -253 237 -163 522 -426 592 -546 108 -187 254 -356 407 -472 103 -78
293 -174 414 -209 411 -117 811 12 957 308 108 220 89 470 -61 772 -28 56 -48
85 -59 85 -9 0 -63 -7 -121 -15 -193 -27 -453 -45 -644 -45 -319 0 -436 23
-650 129 -146 72 -173 81 -345 107 -151 23 -200 53 -216 131 -7 37 -14 35 180
53 454 41 735 179 736 361 0 92 -110 228 -259 320 -39 24 -71 48 -71 52 0 15
117 153 176 207 94 85 81 86 261 -22 86 -52 158 -99 160 -105 2 -5 -31 -18
-74 -27 -231 -52 -291 -69 -330 -91 -53 -31 -60 -43 -37 -60 16 -11 23 -10 49
10 40 29 74 40 235 75 74 16 153 35 176 43 l41 15 102 -78 c118 -89 312 -252
307 -257 -3 -3 -506 -33 -563 -33 -29 0 -33 -3 -33 -25 l0 -25 98 6 c53 3 199
11 325 17 l227 12 82 -82 83 -83 -348 0 -347 0 0 -26 0 -27 365 5 364 6 47
-50 c25 -27 43 -52 39 -56 -3 -4 -75 -16 -158 -28 -84 -12 -246 -36 -362 -53
-347 -51 -502 -58 -697 -34 -43 5 -48 4 -48 -15 0 -11 8 -23 18 -27 9 -4 94
-10 187 -12 194 -6 313 5 715 67 141 22 288 42 327 46 l70 7 56 -74 c31 -41
51 -75 44 -76 -7 -2 -118 -17 -247 -34 -172 -23 -274 -32 -382 -32 -120 0
-148 -3 -153 -15 -3 -8 -3 -18 1 -21 3 -3 85 -6 182 -5 142 0 222 7 400 32
123 18 228 32 233 32 13 0 107 -146 167 -260 148 -280 216 -521 215 -765 0
-328 -119 -544 -433 -787 -187 -144 -305 -207 -593 -314 -110 -41 -212 -81
-226 -89 -26 -14 -26 -14 9 -9 711 120 1147 401 1316 850 56 148 72 386 39
580 -58 336 -240 704 -531 1069 -120 151 -450 478 -614 609 -371 296 -830 552
-1155 644 -144 41 -377 87 -545 109 -190 24 -634 24 -775 0 -222 -39 -391 -99
-522 -187 -52 -34 -91 -52 -118 -55 -22 -3 -87 -10 -145 -15 -249 -26 -376
-92 -414 -216 -5 -16 -2 -23 13 -27 16 -4 25 4 42 40 46 95 186 146 447 165
23 2 42 3 42 2 0 -1 -27 -54 -61 -118 -33 -64 -59 -121 -57 -127 2 -6 37 25
77 70 79 88 173 167 236 198 89 45 487 155 503 139 3 -4 -2 -6 -11 -6 -26 0
-72 -46 -156 -154 -44 -57 -97 -118 -118 -135 -53 -44 -129 -80 -188 -87 -61
-8 -96 -25 -157 -77 -53 -44 -69 -47 -153 -24 -64 18 -233 37 -332 37 -35 0
-63 3 -63 8 0 4 -12 20 -26 36 l-25 28 -38 -41 c-42 -46 -122 -86 -201 -101
-99 -19 -93 -25 -88 99 8 192 58 253 312 377 352 172 856 280 1531 329 148 10
208 19 273 39 46 14 111 30 145 35 80 13 262 5 368 -15z m-659 -416 c-44 -57
-96 -129 -117 -162 l-37 -58 -46 81 c-57 99 -124 179 -166 196 -22 10 -27 15
-16 19 27 10 203 23 333 25 l128 1 -79 -102z m398 67 c47 -8 89 -15 93 -15 5
0 -32 -44 -82 -97 -121 -131 -196 -227 -227 -289 -24 -49 -28 -52 -72 -58 -26
-3 -69 -13 -95 -22 -39 -13 -51 -14 -63 -3 -24 20 -87 151 -76 158 5 3 17 21
26 40 23 44 105 158 177 247 l57 70 89 -8 c48 -5 126 -15 173 -23z m-3622
-251 c57 -113 163 -270 284 -421 81 -101 108 -142 118 -180 11 -46 17 -52 151
-153 76 -58 137 -109 135 -115 -1 -5 -61 -54 -132 -108 -158 -119 -245 -202
-273 -259 -38 -79 -30 -81 77 -22 533 295 1228 428 1818 349 175 -23 438 -80
484 -105 18 -9 94 -181 136 -303 36 -105 61 -246 69 -382 4 -66 4 -117 1 -114
-3 3 -15 59 -26 125 -37 216 -78 323 -151 388 -49 45 -50 44 -70 -59 -10 -49
-14 -157 -14 -365 -1 -462 -3 -466 -65 -120 -23 129 -44 237 -46 239 -7 7 -30
-28 -91 -139 -31 -57 -76 -128 -100 -157 l-43 -53 0 -200 c0 -153 -3 -200 -12
-200 -7 0 -64 18 -126 40 -172 61 -295 83 -422 77 -58 -3 -127 -13 -153 -21
-148 -47 -282 -155 -381 -308 -68 -105 -102 -174 -156 -315 l-43 -112 -76 -31
c-42 -18 -79 -35 -83 -39 -4 -3 22 -24 58 -46 57 -35 64 -43 59 -64 -15 -60
-23 -230 -14 -321 75 -796 1074 -1302 2769 -1401 210 -12 991 -6 1155 9 148
14 307 -10 687 -102 414 -101 482 -108 1023 -104 399 3 412 2 490 -20 77 -21
171 -70 201 -103 12 -14 -2 -31 -129 -156 -306 -301 -518 -437 -1007 -648
-487 -210 -726 -343 -998 -551 -118 -91 -142 -88 -360 40 -70 42 -148 83 -172
91 -57 21 -123 14 -187 -19 -63 -32 -106 -78 -140 -151 -26 -55 -28 -69 -28
-180 0 -139 21 -218 80 -301 27 -38 32 -51 22 -60 -6 -6 -85 -52 -175 -102
l-163 -90 -52 52 c-61 61 -154 118 -240 147 -178 60 -481 85 -912 74 -780 -18
-1321 59 -1744 251 -40 19 -74 34 -75 34 -1 0 28 -30 64 -68 62 -63 154 -178
162 -203 2 -6 40 12 86 42 l82 52 56 -38 c59 -41 94 -82 94 -111 0 -9 -11 -36
-25 -59 l-24 -42 65 23 c36 13 80 24 98 24 38 0 110 -36 170 -84 82 -66 94
-68 261 -30 146 32 154 31 171 -26 7 -25 10 -48 6 -51 -4 -4 -61 -27 -127 -52
-364 -137 -718 -210 -1140 -237 -204 -13 -436 -13 -414 0 17 10 184 33 324 46
116 10 134 20 50 28 -195 18 -343 41 -332 52 2 2 111 22 243 45 131 22 241 43
244 46 3 3 -56 3 -130 -1 -614 -29 -825 -14 -1020 76 l-65 30 435 73 c239 40
444 75 455 78 22 6 -116 2 -458 -13 -300 -14 -471 -40 -582 -89 l-42 -19 -100
117 -101 116 472 5 471 5 93 58 c51 32 126 71 167 88 75 30 114 34 196 20 l47
-7 6 44 c10 77 10 77 -61 115 -38 20 -81 46 -98 57 l-30 21 60 -5 c33 -3 110
-8 170 -11 126 -7 535 -43 581 -51 30 -5 36 -1 113 95 l81 100 -47 43 c-199
179 -255 253 -269 357 l-6 47 -111 22 c-195 40 -288 104 -365 251 -44 85 -64
101 -366 290 -178 112 -266 164 -681 403 -137 79 -292 169 -342 198 l-93 55
-44 135 c-120 364 -214 758 -297 1249 -43 261 -48 356 -24 516 46 302 190 665
368 926 45 66 101 150 124 186 112 176 159 393 107 496 -12 23 -12 27 -1 27
11 0 16 25 21 98 18 259 113 529 269 764 61 93 68 118 32 118 -17 0 -143 -203
-195 -313 -86 -183 -132 -359 -155 -588 l-6 -57 -35 11 -34 10 0 65 c0 52 5
74 26 110 30 50 30 48 -6 252 -19 104 -21 147 -16 255 7 152 25 269 59 376 18
58 42 102 99 180 42 57 95 146 118 197 l44 93 27 -84 c15 -47 45 -120 67 -163z
m3928 182 c65 -19 137 -40 158 -48 l39 -14 -159 -163 -159 -162 -110 12 c-60
6 -142 9 -182 7 -52 -2 -73 0 -73 8 0 46 310 393 351 394 8 0 69 -15 135 -34z
m472 -177 c67 -32 122 -59 122 -62 0 -2 -21 -18 -46 -36 -39 -29 -157 -160
-206 -229 l-15 -22 -69 29 c-66 28 -190 68 -282 91 l-44 11 154 158 153 158
55 -20 c30 -11 110 -46 178 -78z m-1741 -651 c259 -380 418 -769 490 -1195 14
-85 18 -163 18 -368 0 -205 -4 -283 -18 -368 -39 -230 -102 -443 -194 -657
-53 -124 -144 -300 -155 -300 -4 0 -40 25 -79 55 -39 30 -76 55 -82 55 -22 0
-94 -88 -104 -127 -21 -82 19 -114 113 -89 l59 15 38 -39 c46 -49 48 -65 3
-43 -33 15 -36 15 -83 -12 -70 -41 -145 -97 -139 -103 3 -3 45 -8 93 -11 l88
-6 11 -90 c6 -49 10 -91 10 -92 -1 -1 -30 7 -65 17 -100 32 -105 15 -26 -76
31 -34 52 -65 48 -67 -5 -2 -25 -10 -46 -17 -71 -23 -73 -38 -22 -186 40 -118
75 -270 75 -331 0 -18 -4 -23 -17 -19 -10 3 -47 12 -82 21 -35 9 -78 27 -95
40 -78 59 -170 89 -426 136 -157 28 -300 64 -300 75 0 2 9 31 20 64 105 312
-41 619 -463 973 -104 87 -328 253 -397 294 -17 9 -30 20 -30 23 0 3 41 23 90
44 82 35 98 39 168 37 83 -2 258 20 357 46 l60 15 42 -46 c48 -54 125 -167
166 -248 20 -37 34 -55 43 -51 23 8 17 40 -37 201 -49 147 -50 154 -33 173 9
10 35 25 57 31 37 11 41 10 60 -13 26 -32 71 -130 91 -199 8 -30 24 -135 35
-233 24 -207 52 -352 85 -439 23 -64 32 -73 54 -60 10 7 6 28 -18 99 -30 92
-54 224 -89 508 -11 88 -32 234 -45 325 l-25 165 30 65 c16 36 58 107 92 158
l61 92 43 0 c34 0 43 -4 43 -17 0 -10 -7 -119 -15 -243 -17 -248 -39 -448 -61
-554 -12 -56 -12 -71 -2 -78 32 -19 34 -14 57 128 24 143 38 281 55 554 9 130
18 206 25 208 8 3 11 69 11 217 l0 213 38 46 c21 26 59 83 85 128 40 71 46 79
51 57 3 -13 24 -123 47 -244 39 -211 41 -223 29 -300 -17 -115 -88 -386 -165
-630 -123 -390 -152 -549 -142 -764 4 -69 12 -153 19 -186 11 -50 17 -61 36
-63 26 -4 26 -9 7 93 -8 44 -14 141 -15 216 0 207 23 319 150 726 76 243 118
401 149 563 11 58 30 146 42 195 19 82 21 120 23 425 1 184 5 343 10 352 11
24 22 15 50 -41 36 -69 51 -132 96 -384 49 -278 51 -383 14 -639 -6 -44 -5
-48 14 -48 15 0 23 8 28 28 3 15 8 33 10 41 2 7 11 120 19 250 32 518 15 692
-100 972 -47 116 -124 273 -176 360 -42 71 -50 108 -42 202 3 42 7 77 8 77 1
0 33 -46 72 -102z m1118 -2797 c463 -406 903 -671 1415 -852 90 -32 125 -48
105 -49 -16 0 -124 -7 -240 -15 -263 -18 -382 -18 -515 0 -234 31 -419 119
-584 276 -42 39 -76 68 -76 63 0 -5 25 -85 56 -179 86 -264 100 -338 68 -383
-10 -15 -25 -22 -49 -22 -44 0 -141 77 -286 227 -337 349 -449 750 -349 1245
11 53 20 99 20 102 0 4 69 -62 153 -146 84 -84 211 -204 282 -267z m-5569
-398 c38 -38 103 -113 144 -167 41 -55 128 -154 192 -220 l118 -121 0 -65 c1
-165 122 -369 388 -656 148 -160 356 -354 732 -684 146 -128 275 -242 288
-253 21 -20 24 -20 39 -4 9 9 15 18 12 20 -31 24 -542 475 -654 578 -206 188
-466 455 -554 568 -124 162 -190 293 -206 411 l-7 54 30 -24 c102 -83 208
-166 286 -221 79 -58 94 -74 145 -156 148 -243 391 -490 866 -881 127 -104
173 -137 183 -129 7 6 12 16 10 22 -2 7 -61 60 -133 118 -300 242 -518 439
-660 597 -89 99 -224 274 -225 292 0 4 71 -38 158 -92 87 -54 293 -176 458
-271 453 -261 713 -416 884 -531 155 -103 155 -103 195 -178 79 -146 185 -222
372 -263 l101 -22 5 -38 c12 -88 91 -195 239 -323 l57 -49 -57 -73 -57 -72
-45 5 c-112 13 -539 46 -785 60 -149 8 -308 22 -354 30 -595 104 -1217 543
-1718 1210 -144 193 -302 450 -402 655 -70 142 -80 198 -66 372 l7 96 73 -147
c418 -833 1014 -1396 1972 -1858 178 -86 225 -101 230 -73 3 11 -28 30 -104
64 -339 152 -700 363 -968 565 -495 374 -904 892 -1156 1463 -28 65 -50 100
-66 109 -29 16 -49 50 -58 102 -9 45 4 247 15 247 4 0 38 -30 76 -67z"/>
<path d="M2555 7923 c-93 -114 -138 -237 -190 -525 -39 -215 -49 -254 -77
-321 -12 -26 -19 -50 -16 -52 2 -3 26 4 54 14 27 10 76 22 109 26 75 9 112 24
148 62 24 26 26 32 13 42 -12 10 -22 7 -53 -18 -30 -24 -54 -33 -112 -41 -41
-6 -75 -9 -77 -7 -2 2 1 19 6 38 6 19 26 120 45 224 58 316 101 435 195 538
37 41 46 57 38 65 -21 21 -36 13 -83 -45z"/>
<path d="M2793 7756 c-75 -81 -163 -255 -149 -291 10 -27 34 -16 46 23 23 70
92 191 136 238 49 53 50 56 30 73 -11 9 -24 0 -63 -43z"/>
<path d="M3668 3490 c-63 -55 -98 -114 -158 -265 -49 -125 -81 -187 -122 -231
-17 -19 -17 -22 -3 -34 33 -28 96 61 161 231 67 174 117 253 188 294 19 11 13
45 -9 45 -7 0 -33 -18 -57 -40z"/>
<path d="M4042 3385 c-78 -72 -114 -144 -147 -292 -13 -62 -31 -125 -39 -141
-15 -30 -83 -96 -106 -104 -18 -6 -5 -38 14 -38 8 0 34 15 58 33 57 44 91 115
122 255 30 134 62 198 133 261 47 42 51 49 40 65 -12 17 -18 14 -75 -39z"/>
<path d="M4381 3260 c-120 -126 -181 -279 -181 -455 0 -110 -32 -157 -115
-169 -36 -6 -45 -11 -45 -27 0 -15 7 -19 38 -19 20 0 56 9 80 20 59 27 78 73
91 221 16 185 67 302 180 413 39 38 48 53 39 63 -17 21 -26 16 -87 -47z"/>
<path d="M7312 3264 c-31 -15 -75 -51 -108 -87 -46 -51 -54 -66 -49 -87 16
-63 17 -83 5 -105 -11 -20 -9 -30 10 -67 29 -57 127 -188 146 -195 9 -3 37 4
62 15 26 11 67 23 91 26 64 7 164 60 225 120 71 69 90 107 90 182 1 51 -4 67
-28 102 -16 23 -56 60 -89 82 l-59 40 -122 0 c-111 0 -127 -2 -174 -26z m256
-133 c49 -26 90 -70 98 -106 5 -28 0 -34 -63 -81 -37 -29 -81 -58 -98 -67 -80
-39 -150 -29 -206 30 -65 70 -64 68 -36 115 29 50 70 90 112 112 43 23 146 21
193 -3z"/>
<path d="M4689 3171 c-35 -21 -54 -44 -74 -85 -25 -52 -28 -70 -36 -234 -5
-97 -13 -197 -19 -222 -21 -86 -72 -172 -152 -254 -70 -73 -87 -106 -53 -106
21 0 132 115 175 181 36 56 70 143 85 215 3 17 10 107 14 200 6 123 12 178 24
200 15 30 53 66 91 89 14 8 15 13 4 28 -12 17 -16 16 -59 -12z"/>
<path d="M5034 2918 c-106 -110 -123 -156 -133 -350 -7 -139 -10 -151 -41
-214 -22 -45 -60 -96 -113 -151 -74 -77 -79 -85 -64 -100 14 -14 22 -9 91 60
133 135 165 211 175 412 9 166 29 222 111 309 34 36 48 59 44 70 -3 9 -9 16
-13 16 -4 0 -29 -24 -57 -52z"/>
<path d="M2410 3345 c-7 -9 -11 -17 -9 -19 2 -2 45 -31 94 -64 50 -33 118 -85
151 -116 58 -52 62 -54 77 -38 15 17 11 22 -59 82 -70 61 -221 169 -235 170
-4 0 -12 -7 -19 -15z"/>
</g>
</svg>
